<svg xmlns="http://www.w3.org/2000/svg" width="980" height="640" viewBox="0 0 980 640" role="img" aria-label="Static hard-negative composite showing non-target proxy motion across six frames">
  <rect width="980" height="640" fill="#fafaf9"/>
  <g font-family="Inter, ui-sans-serif, system-ui, -apple-system, Segoe UI, sans-serif">
    <text x="36" y="54" fill="#1c1917" font-size="30" font-weight="650">Hard-negative evidence sequence</text>
    <text x="36" y="84" fill="#78716c" font-size="16">Synthetic public fixture · routed motion that should stay labeled none</text>
  </g>
  <g transform="translate(36 122)">
    <g fill="#fff" stroke="#d6d3d1" stroke-width="2">
      <rect x="0" y="0" width="286" height="190" rx="8"/>
      <rect x="314" y="0" width="286" height="190" rx="8"/>
      <rect x="628" y="0" width="286" height="190" rx="8"/>
      <rect x="0" y="222" width="286" height="190" rx="8"/>
      <rect x="314" y="222" width="286" height="190" rx="8"/>
      <rect x="628" y="222" width="286" height="190" rx="8"/>
    </g>
    <g fill="none" stroke="#e7e5e4" stroke-width="1">
      <path d="M24 150H262M338 150H576M652 150H890M24 372H262M338 372H576M652 372H890"/>
      <path d="M24 38H262M338 38H576M652 38H890M24 260H262M338 260H576M652 260H890"/>
    </g>
    <g stroke="#b45309" stroke-width="4" stroke-linecap="round" opacity="0.35">
      <path d="M56 124L214 74"/>
      <path d="M370 118L528 68"/>
      <path d="M684 114L842 66"/>
      <path d="M56 342L214 310"/>
      <path d="M370 336L528 318"/>
      <path d="M684 332L842 326"/>
    </g>
    <g fill="#b45309">
      <circle cx="72" cy="122" r="24"/>
      <circle cx="414" cy="104" r="24"/>
      <circle cx="742" cy="86" r="24"/>
      <circle cx="96" cy="344" r="24"/>
      <circle cx="426" cy="332" r="24"/>
      <circle cx="746" cy="326" r="24"/>
    </g>
    <g fill="#78716c" font-family="JetBrains Mono, ui-monospace, SF Mono, Menlo, Consolas, monospace" font-size="14">
      <text x="18" y="174">frame 08 · t=1.6s</text>
      <text x="332" y="174">frame 12 · t=2.4s</text>
      <text x="646" y="174">frame 16 · t=3.2s</text>
      <text x="18" y="396">frame 20 · t=4.0s</text>
      <text x="332" y="396">frame 24 · t=4.8s</text>
      <text x="646" y="396">frame 28 · t=5.6s</text>
    </g>
  </g>
  <g transform="translate(36 576)" font-family="Inter, ui-sans-serif, system-ui, -apple-system, Segoe UI, sans-serif">
    <rect width="908" height="34" rx="6" fill="#f5f5f4" stroke="#e7e5e4"/>
    <text x="14" y="22" fill="#44403c" font-size="14">routing: high motion confounder · observation: none · no decoded target-behavior episode</text>
  </g>
</svg>
