<svg xmlns="http://www.w3.org/2000/svg" width="980" height="640" viewBox="0 0 980 640" role="img" aria-label="Static short clip composite showing compact clip-mode intervals">
  <rect width="980" height="640" fill="#fafaf9"/>
  <g font-family="Inter, ui-sans-serif, system-ui, -apple-system, Segoe UI, sans-serif">
    <text x="36" y="54" fill="#1c1917" font-size="30" font-weight="650">Short clip evidence sequence</text>
    <text x="36" y="84" fill="#78716c" font-size="16">Synthetic public fixture · compact clip-mode windows with two behavior labels</text>
  </g>
  <g transform="translate(36 122)">
    <g fill="#fff" stroke="#d6d3d1" stroke-width="2">
      <rect x="0" y="0" width="286" height="190" rx="8"/>
      <rect x="314" y="0" width="286" height="190" rx="8"/>
      <rect x="628" y="0" width="286" height="190" rx="8"/>
      <rect x="0" y="222" width="286" height="190" rx="8"/>
      <rect x="314" y="222" width="286" height="190" rx="8"/>
      <rect x="628" y="222" width="286" height="190" rx="8"/>
    </g>
    <g fill="none" stroke="#e7e5e4" stroke-width="1">
      <path d="M24 150H262M338 150H576M652 150H890M24 372H262M338 372H576M652 372H890"/>
      <path d="M24 38H262M338 38H576M652 38H890M24 260H262M338 260H576M652 260H890"/>
    </g>
    <g fill="#2563eb">
      <circle cx="74" cy="96" r="24"/>
      <circle cx="444" cy="72" r="24"/>
      <circle cx="806" cy="116" r="24"/>
    </g>
    <g stroke="#2563eb" stroke-width="10" stroke-linecap="round" opacity="0.62">
      <path d="M74 96c40-42 80-42 120 0"/>
      <path d="M444 72c-42 42-82 42-122 0"/>
      <path d="M806 116c40-42 80-42 120 0"/>
    </g>
    <g fill="#7c3aed">
      <circle cx="92" cy="338" r="24"/>
      <circle cx="456" cy="306" r="24"/>
      <circle cx="792" cy="350" r="24"/>
    </g>
    <g stroke="#7c3aed" stroke-width="10" stroke-linecap="round" opacity="0.62">
      <path d="M92 338c28-36 66-50 116-42"/>
      <path d="M456 306c-34 44-78 50-132 18"/>
      <path d="M792 350c30-38 70-48 122-30"/>
    </g>
    <g fill="#78716c" font-family="JetBrains Mono, ui-monospace, SF Mono, Menlo, Consolas, monospace" font-size="14">
      <text x="18" y="174">frame 03 · t=0.2s</text>
      <text x="332" y="174">frame 05 · t=0.4s</text>
      <text x="646" y="174">frame 07 · t=0.6s</text>
      <text x="18" y="396">frame 15 · t=1.2s</text>
      <text x="332" y="396">frame 17 · t=1.4s</text>
      <text x="646" y="396">frame 19 · t=1.6s</text>
    </g>
  </g>
  <g transform="translate(36 576)" font-family="Inter, ui-sans-serif, system-ui, -apple-system, Segoe UI, sans-serif">
    <rect width="908" height="34" rx="6" fill="#f5f5f4" stroke="#e7e5e4"/>
    <text x="14" y="22" fill="#44403c" font-size="14">routing: clip mode · observations: flap, other_repetitive · compact two-second fixture</text>
  </g>
</svg>
